<?xml version="1.0" standalone="no"?>
<!DOCTYPE svg PUBLIC "-//W3C//DTD SVG 20010904//EN"
 "http://www.w3.org/TR/2001/REC-SVG-20010904/DTD/svg10.dtd">
<svg version="1.0" xmlns="http://www.w3.org/2000/svg"
 width="396.000000pt" height="395.000000pt" viewBox="0 0 396.000000 395.000000"
 preserveAspectRatio="xMidYMid meet">
<metadata>
Created by potrace 1.14, written by Peter Selinger 2001-2017
</metadata>
<g transform="translate(0.000000,395.000000) scale(0.100000,-0.100000)"
fill="#000000" stroke="none">
<path d="M200 3345 l0 -375 375 0 375 0 0 375 0 375 -375 0 -375 0 0 -375z
m648 -2 l-3 -268 -267 -3 -268 -2 0 270 0 270 270 0 270 0 -2 -267z"/>
<path d="M420 3340 l0 -160 160 0 160 0 0 160 0 160 -160 0 -160 0 0 -160z"/>
<path d="M1598 3668 l-3 -53 -52 -3 -53 -3 0 -55 0 -54 -55 0 -55 0 0 -50 0
-50 55 0 55 0 0 -55 0 -55 -110 0 -110 0 0 105 0 105 -50 0 -50 0 0 -50 0 -50
-55 0 -55 0 0 -270 0 -270 -103 0 c-57 0 -106 -2 -108 -4 -2 -2 -2 -27 -1 -55
l4 -51 104 0 104 0 0 -105 0 -105 -55 0 -55 0 0 55 0 55 -212 -2 -213 -3 -3
-52 -3 -53 -49 0 -49 0 -3 53 -3 52 -52 3 -53 3 0 105 0 104 -55 0 -55 0 0
-105 0 -105 55 0 55 0 0 -55 0 -55 55 0 55 0 0 -55 0 -55 -110 0 -110 0 0 -55
0 -55 55 0 55 0 0 -50 0 -50 -55 0 -55 0 0 -55 0 -55 55 0 55 0 0 -55 0 -55
55 0 55 0 0 -50 0 -50 -55 0 -55 0 0 -55 0 -55 -55 0 -55 0 0 -110 0 -110 55
0 55 0 0 55 0 55 105 0 105 0 0 -55 0 -55 -50 0 -50 0 0 -50 0 -50 50 0 50 0
0 -110 0 -110 -50 0 -50 0 0 -50 0 -50 -110 0 -110 0 0 -55 0 -55 110 0 110 0
0 55 0 55 50 0 50 0 0 50 0 50 110 0 110 0 0 -50 0 -50 -55 0 -55 0 0 -55 0
-55 160 0 160 0 0 55 0 55 -50 0 -50 0 0 50 0 50 -55 0 -55 0 0 56 0 55 53 -3
c52 -3 52 -3 54 -38 1 -19 2 -43 2 -52 1 -16 13 -18 106 -18 l105 0 0 -50 0
-50 55 0 55 0 0 -55 0 -55 -55 0 -55 0 0 -110 0 -110 55 0 55 0 0 -50 0 -50
-55 0 -55 0 0 -55 0 -55 105 0 105 0 0 105 0 105 55 0 55 0 0 55 0 55 -55 0
-55 0 0 110 0 110 55 0 55 0 0 160 0 160 55 0 55 0 0 -109 0 -110 53 -3 52 -3
3 -47 3 -48 -55 0 -56 0 0 -55 0 -55 54 0 54 0 -2 -55 -3 -55 54 0 53 0 0 160
0 160 55 0 55 0 0 55 0 55 -55 0 -55 0 0 55 0 55 110 0 110 0 0 -110 0 -110
50 0 50 0 0 -105 0 -105 -49 0 -50 0 -3 53 -3 52 -52 3 -53 3 0 -165 0 -166
55 0 55 0 0 -105 0 -105 50 0 50 0 0 -55 0 -55 55 0 55 0 0 -50 0 -50 -105 0
-105 0 0 50 0 50 -55 0 -55 0 0 55 0 55 -55 0 -55 0 0 106 0 105 -51 -3 -52
-3 -1 -102 -1 -103 53 0 52 0 0 -55 0 -55 55 0 55 0 0 -50 0 -50 -55 0 -55 0
0 -110 0 -110 55 0 55 0 0 55 0 55 55 0 55 0 0 -55 0 -55 265 0 265 0 0 55 0
55 55 0 55 0 0 -55 0 -55 160 0 160 0 0 110 0 110 55 0 55 0 0 -55 0 -55 55 0
55 0 0 -55 0 -55 105 0 105 0 0 55 0 54 -106 3 -106 3 -2 157 -1 158 53 0 52
0 0 -105 0 -105 55 0 55 0 0 50 0 50 55 0 55 0 0 -50 0 -50 50 0 50 0 0 105 0
105 110 0 110 0 0 55 0 55 -55 0 -55 0 0 160 0 160 55 0 55 0 0 105 0 105 -55
0 -55 0 0 110 0 110 -160 0 -160 0 0 -55 0 -55 -55 0 -55 0 0 55 0 55 -49 0
-49 0 -4 50 -3 50 53 0 52 0 0 55 0 55 110 0 110 0 0 55 0 55 50 0 50 0 0
-110 0 -110 110 0 110 0 0 55 0 55 -55 0 -55 0 0 110 0 110 55 0 55 0 0 105 0
105 -55 0 -55 0 0 105 0 105 55 0 55 0 0 110 0 110 -55 0 -55 0 0 56 0 56 55
-4 55 -3 0 108 0 107 -55 0 -55 0 0 -55 0 -55 -55 0 -55 0 0 -105 0 -105 55 0
55 0 0 -55 0 -55 -55 0 -55 0 0 -55 0 -55 -50 0 -50 0 0 55 0 55 -110 0 -110
0 0 -56 0 -55 -51 3 -51 3 -1 108 -2 107 53 0 52 0 0 55 0 55 -160 0 -160 0 0
-55 0 -55 -55 0 -55 0 0 105 0 105 325 0 325 0 0 55 0 55 -325 0 -325 0 0 55
0 55 55 0 55 0 0 50 0 50 -55 0 -55 0 0 -50 0 -50 -50 0 -50 0 0 105 0 105 50
0 50 0 0 55 0 55 -50 0 -50 0 0 -55 0 -55 -162 0 -163 0 1 55 0 55 -53 0 -53
0 0 -54 0 -55 53 -3 52 -3 2 -102 1 -103 -54 0 -54 0 0 50 0 50 -55 0 -55 0 0
55 0 55 -55 0 -55 0 0 55 0 55 55 0 55 0 0 55 0 55 55 0 55 0 0 51 0 50 53 -3
c52 -3 52 -3 54 -38 1 -19 2 -41 2 -47 1 -10 29 -13 106 -13 l105 0 0 50 0 50
55 0 55 0 0 -50 0 -50 50 0 50 0 0 50 0 50 55 0 55 0 0 55 0 55 -55 0 -55 0 0
-55 0 -55 -50 0 -50 0 0 55 0 55 -55 0 -55 0 0 55 0 55 -55 0 -55 0 0 -55 0
-55 55 0 55 0 0 -55 0 -55 -105 0 c-117 0 -106 -8 -108 78 l-1 32 -108 0 -108
0 0 -55 0 -55 -55 0 -55 0 0 -50 0 -50 -105 0 -105 0 0 105 0 105 105 0 105 0
0 55 0 55 -105 0 -105 0 0 -55 0 -55 -55 0 -55 0 0 55 0 55 -49 0 -50 0 -3
-52z m102 -218 l0 -50 55 0 55 0 0 -55 0 -55 55 0 55 0 0 -55 0 -55 50 0 50 0
0 -55 0 -55 55 0 55 0 0 -50 0 -50 55 0 55 0 0 -55 0 -55 55 0 55 0 0 -55 0
-55 50 0 50 0 0 55 0 55 55 0 55 0 0 55 0 55 -55 0 -55 0 0 50 0 50 55 0 55 0
0 -50 0 -50 55 0 55 0 0 -55 0 -55 50 0 50 0 0 -55 0 -55 -50 0 -50 0 0 55 0
55 -55 0 -55 0 0 -55 0 -55 -55 0 -55 0 0 -50 0 -49 108 -3 107 -3 3 -52 3
-53 50 0 49 0 0 -55 0 -55 -105 0 -105 0 0 55 0 55 -105 0 -104 0 -3 -107 -3
-108 -107 -3 -108 -3 0 -49 0 -50 -55 0 -55 0 0 -55 0 -55 -50 0 -50 0 0 55 0
55 -55 0 -55 0 0 50 0 50 -55 0 -55 0 0 110 0 110 159 0 160 0 3 53 3 52 53 3
52 3 0 -55 0 -56 55 0 55 0 0 105 0 105 -55 0 -55 0 0 110 0 110 -55 0 -55 0
0 -110 0 -110 -50 0 -50 0 0 55 0 55 -55 0 -55 0 0 -105 0 -105 -160 0 -160 0
0 -55 0 -55 55 0 55 0 0 -94 c0 -124 -1 -126 -61 -126 l-49 0 0 -50 0 -50 -55
0 -55 0 0 -55 0 -55 55 0 55 0 0 -55 0 -55 56 0 55 0 -1 98 c-1 53 -1 103 -1
110 1 8 18 12 51 12 l50 0 0 -55 0 -55 55 0 55 0 0 -55 0 -55 215 0 215 0 0
110 0 110 105 0 105 0 0 50 0 50 55 0 55 0 0 -50 0 -50 -55 0 -55 0 0 -110 0
-110 -105 0 -105 0 0 -105 0 -105 56 0 56 0 -2 43 c-1 23 -1 48 -1 55 1 9 29
12 106 12 l105 0 0 50 0 50 55 0 55 0 0 55 0 55 50 0 50 0 0 -55 0 -55 -50 0
-50 0 0 -50 0 -50 209 0 c187 0 210 2 215 17 4 9 6 80 5 157 l-1 141 51 3 51
3 0 50 0 49 110 0 110 0 0 -50 0 -50 50 0 50 0 0 -55 0 -55 55 0 55 0 0 -55 0
-55 -55 0 -55 0 0 -50 0 -50 -105 0 -105 0 0 -55 0 -55 -55 0 -55 0 0 -55 0
-55 -52 0 -53 0 3 55 4 55 -56 0 -56 0 0 -160 0 -160 -110 0 -110 0 0 50 0 50
-105 0 -105 0 0 110 0 110 -55 0 -55 0 0 -55 0 -55 -50 0 -50 0 0 -55 0 -55
50 0 50 0 0 -50 0 -50 110 0 110 0 0 -110 0 -110 50 0 50 0 0 55 0 55 215 0
215 0 0 -55 0 -55 55 0 55 0 0 55 0 55 105 0 105 0 0 -105 0 -105 -160 0 -160
0 0 50 0 50 -52 0 -53 0 3 -50 4 -50 -56 0 -56 0 0 50 0 50 -55 0 -55 0 0 -49
0 -50 -52 -3 -53 -3 -3 -52 -3 -53 -50 0 -49 0 0 -110 0 -110 50 0 50 0 0
-160 0 -160 -50 0 -50 0 0 -50 0 -50 50 0 50 0 0 -55 0 -55 -50 0 -50 0 0 55
0 55 -55 0 -55 0 0 50 0 50 55 0 55 0 0 160 0 160 -110 0 -110 0 0 -105 0
-105 -50 0 -50 0 0 -55 0 -55 50 0 50 0 0 -50 0 -50 -50 0 -50 0 -1 -37 c-1
-21 -2 -46 -2 -56 0 -14 -9 -17 -53 -17 l-54 0 0 160 0 160 -110 0 -110 0 0
160 0 160 55 0 55 0 0 -55 0 -55 55 0 55 0 0 55 0 55 54 0 53 0 -1 53 -1 52
-107 3 -108 3 0 159 0 160 -55 0 -55 0 0 55 0 55 -50 0 -50 0 0 50 0 50 -110
0 -110 0 0 -50 0 -50 -105 0 -105 0 0 50 0 50 -55 0 -55 0 0 55 0 55 55 0 55
0 0 55 0 55 56 0 55 0 -3 53 -3 52 -107 3 -108 3 0 -56 0 -55 -55 0 -55 0 0
265 0 265 -50 0 -50 0 0 110 0 110 105 0 105 0 0 55 0 55 -105 0 -105 0 0 50
0 50 265 0 265 0 0 55 0 55 -105 0 -105 0 0 55 0 55 -55 0 -55 0 0 50 0 50
-55 0 -55 0 0 -105 0 -105 -50 0 -50 0 0 105 0 105 50 0 50 0 0 55 0 55 55 0
55 0 0 -55 0 -55 55 0 55 0 0 -50 0 -50 55 0 c30 0 54 3 54 8 -1 4 -1 26 0 50
l1 42 50 0 50 0 0 -105 0 -105 55 0 55 0 0 105 0 105 55 0 55 0 0 55 0 55
-215 0 -215 0 0 54 0 55 53 3 52 3 3 103 3 102 49 0 50 0 0 -50z m-750 -965
l0 -55 55 0 55 0 0 -160 0 -160 55 0 55 0 0 -55 0 -55 -55 0 -55 0 0 -49 0
-50 53 -3 52 -3 3 -107 3 -108 -56 0 -55 0 0 55 0 55 -105 0 -105 0 0 55 0 55
-55 0 -55 0 0 -110 0 -110 105 0 105 0 0 -55 0 -55 -105 0 -105 0 0 -105 0
-105 -55 0 -55 0 0 105 0 105 55 0 55 0 0 55 0 55 -110 0 -110 0 0 55 0 55 55
0 55 0 0 55 0 55 -55 0 -55 0 0 50 0 50 110 0 110 0 0 55 0 55 105 0 105 0 0
55 0 55 -265 0 -265 0 0 -55 0 -55 -55 0 -55 0 0 55 0 55 55 0 55 0 0 105 0
105 50 0 50 0 0 55 0 55 215 0 215 0 0 -55z m2040 -55 l0 -110 -55 0 -55 0 0
-50 0 -50 55 0 55 0 0 -110 0 -110 -55 0 -55 0 0 110 0 110 -55 0 -55 0 0 50
0 50 55 0 55 0 0 110 0 110 55 0 55 0 0 -110z m-1720 -910 l0 -50 -50 0 -50 0
0 -55 0 -55 50 0 50 0 0 -105 0 -105 -50 0 -50 0 0 105 0 105 -162 0 -163 0 3
55 4 55 104 0 104 0 0 50 0 50 105 0 105 0 0 -50z m1930 -640 l0 -160 -160 0
-160 0 0 160 0 160 160 0 160 0 0 -160z m220 50 l0 -110 50 0 50 0 0 -105 0
-105 -105 0 -105 0 0 215 0 215 55 0 55 0 0 -110z"/>
<path d="M1270 2375 l0 -55 110 0 110 0 0 55 0 55 -110 0 -110 0 0 -55z"/>
<path d="M3200 2060 l0 -160 -50 0 -50 0 0 -55 0 -55 50 0 50 0 0 55 0 55 55
0 55 0 0 160 0 160 -55 0 -55 0 0 -160z"/>
<path d="M1920 1845 l0 -55 -55 0 -55 0 0 -55 0 -55 55 0 55 0 0 -55 0 -55
105 0 105 0 0 -50 0 -50 55 0 55 0 0 105 0 105 -55 0 -55 0 0 55 0 55 -55 0
-55 0 0 55 0 55 -50 0 -50 0 0 -55z"/>
<path d="M2560 1845 l0 -55 55 0 55 0 0 -55 0 -55 50 0 50 0 0 55 0 55 -50 0
-50 0 0 55 0 55 -55 0 -55 0 0 -55z"/>
<path d="M1599 1710 c-1 -44 -2 -92 -3 -107 -1 -27 1 -28 52 -31 l52 -3 0 110
0 111 -50 0 -50 0 -1 -80z"/>
<path d="M2348 1255 l-3 -215 53 0 52 0 0 -55 0 -55 55 0 55 0 0 55 0 55 56 0
55 0 -3 53 -3 52 -52 3 -53 3 0 105 0 104 -55 0 -55 0 0 55 0 55 -50 0 -49 0
-3 -215z"/>
<path d="M520 2375 l0 -55 215 0 215 0 0 55 0 55 -215 0 -215 0 0 -55z"/>
<path d="M950 2055 l0 -55 -50 0 -50 0 0 -50 0 -50 50 0 50 0 0 50 0 50 55 0
55 0 0 55 0 55 -55 0 -55 0 0 -55z"/>
<path d="M2990 3345 l0 -375 375 0 375 0 0 375 0 375 -375 0 -375 0 0 -375z
m640 -5 l0 -270 -265 0 -265 0 0 33 c0 17 -1 139 -3 270 l-2 237 268 0 267 0
0 -270z"/>
<path d="M3200 3340 l0 -160 160 0 160 0 0 160 0 160 -160 0 -160 0 0 -160z"/>
<path d="M200 555 l0 -375 375 0 375 0 0 375 0 375 -375 0 -375 0 0 -375z
m650 0 l0 -265 -270 0 -270 0 0 265 0 265 270 0 270 0 0 -265z"/>
<path d="M420 560 l0 -160 160 0 160 0 0 160 0 160 -160 0 -160 0 0 -160z"/>
<path d="M1170 395 l0 -105 -55 0 -55 0 0 -55 0 -55 55 0 55 0 0 55 0 55 160
0 160 0 0 -55 0 -55 56 0 55 0 -3 108 -3 107 -107 3 -108 3 0 49 0 50 -105 0
-105 0 0 -105z"/>
</g>
</svg>
